<mxfile host="Electron" agent="Mozilla/5.0 (Macintosh; Intel Mac OS X 10_15_7) AppleWebKit/537.36 (KHTML, like Gecko) draw.io/24.7.17 Chrome/128.0.6613.36 Electron/32.0.1 Safari/537.36" version="24.7.17">
  <diagram name="Page-1" id="VLgLon7HGVc0YhQWd_kw">
    <mxGraphModel dx="2220" dy="1068" grid="1" gridSize="10" guides="1" tooltips="1" connect="1" arrows="1" fold="1" page="1" pageScale="1" pageWidth="827" pageHeight="1169" math="0" shadow="0">
      <root>
        <mxCell id="0" />
        <mxCell id="1" parent="0" />
        <mxCell id="OGbt-qXawgQpkkjLwjIS-44" style="edgeStyle=orthogonalEdgeStyle;rounded=0;orthogonalLoop=1;jettySize=auto;html=1;" edge="1" parent="1" source="C9QYniWNFZmsUueq7vX_-8" target="OGbt-qXawgQpkkjLwjIS-42">
          <mxGeometry relative="1" as="geometry">
            <Array as="points">
              <mxPoint x="-80" y="910" />
            </Array>
          </mxGeometry>
        </mxCell>
        <mxCell id="C9QYniWNFZmsUueq7vX_-8" value="users" style="sketch=0;aspect=fixed;pointerEvents=1;shadow=0;dashed=0;html=1;strokeColor=none;labelPosition=center;verticalLabelPosition=bottom;verticalAlign=top;align=center;fillColor=#00188D;shape=mxgraph.azure.laptop" parent="1" vertex="1">
          <mxGeometry x="-120" y="491" width="50" height="30" as="geometry" />
        </mxCell>
        <mxCell id="C9QYniWNFZmsUueq7vX_-10" value="" style="edgeStyle=orthogonalEdgeStyle;rounded=0;orthogonalLoop=1;jettySize=auto;html=1;entryX=0;entryY=0.5;entryDx=0;entryDy=0;entryPerimeter=0;" parent="1" source="C9QYniWNFZmsUueq7vX_-8" target="C9QYniWNFZmsUueq7vX_-9" edge="1">
          <mxGeometry relative="1" as="geometry" />
        </mxCell>
        <mxCell id="C9QYniWNFZmsUueq7vX_-23" value="send email" style="edgeStyle=orthogonalEdgeStyle;rounded=0;orthogonalLoop=1;jettySize=auto;html=1;entryX=0.5;entryY=1;entryDx=0;entryDy=0;entryPerimeter=0;exitX=0;exitY=0.5;exitDx=0;exitDy=0;exitPerimeter=0;" parent="1" source="C9QYniWNFZmsUueq7vX_-50" target="C9QYniWNFZmsUueq7vX_-8" edge="1">
          <mxGeometry relative="1" as="geometry">
            <mxPoint x="270.75" y="1060" as="sourcePoint" />
          </mxGeometry>
        </mxCell>
        <mxCell id="C9QYniWNFZmsUueq7vX_-53" value="VPC" style="points=[[0,0],[0.25,0],[0.5,0],[0.75,0],[1,0],[1,0.25],[1,0.5],[1,0.75],[1,1],[0.75,1],[0.5,1],[0.25,1],[0,1],[0,0.75],[0,0.5],[0,0.25]];outlineConnect=0;gradientColor=none;html=1;whiteSpace=wrap;fontSize=12;fontStyle=0;container=1;pointerEvents=0;collapsible=0;recursiveResize=0;shape=mxgraph.aws4.group;grIcon=mxgraph.aws4.group_vpc2;strokeColor=#8C4FFF;fillColor=none;verticalAlign=top;align=left;spacingLeft=30;fontColor=#AAB7B8;dashed=0;" parent="1" vertex="1">
          <mxGeometry x="70" y="90" width="1130" height="1120" as="geometry" />
        </mxCell>
        <mxCell id="C9QYniWNFZmsUueq7vX_-50" value="Email Service" style="outlineConnect=0;dashed=0;verticalLabelPosition=bottom;verticalAlign=top;align=center;html=1;shape=mxgraph.aws3.lambda_function;fillColor=#F58534;gradientColor=none;" parent="C9QYniWNFZmsUueq7vX_-53" vertex="1">
          <mxGeometry x="134.5" y="1020" width="69" height="72" as="geometry" />
        </mxCell>
        <mxCell id="OGbt-qXawgQpkkjLwjIS-4" style="edgeStyle=orthogonalEdgeStyle;rounded=0;orthogonalLoop=1;jettySize=auto;html=1;exitX=0.962;exitY=0.228;exitDx=0;exitDy=0;exitPerimeter=0;" edge="1" parent="C9QYniWNFZmsUueq7vX_-53" source="OGbt-qXawgQpkkjLwjIS-39" target="C9QYniWNFZmsUueq7vX_-16">
          <mxGeometry relative="1" as="geometry">
            <mxPoint x="363.99999999999955" y="850" as="sourcePoint" />
          </mxGeometry>
        </mxCell>
        <mxCell id="OGbt-qXawgQpkkjLwjIS-18" style="edgeStyle=orthogonalEdgeStyle;rounded=0;orthogonalLoop=1;jettySize=auto;html=1;exitX=0.014;exitY=0.228;exitDx=0;exitDy=0;exitPerimeter=0;" edge="1" parent="C9QYniWNFZmsUueq7vX_-53" source="OGbt-qXawgQpkkjLwjIS-39" target="OGbt-qXawgQpkkjLwjIS-10">
          <mxGeometry relative="1" as="geometry">
            <mxPoint x="244" y="850" as="sourcePoint" />
          </mxGeometry>
        </mxCell>
        <mxCell id="OGbt-qXawgQpkkjLwjIS-2" value="sub" style="edgeStyle=orthogonalEdgeStyle;rounded=0;orthogonalLoop=1;jettySize=auto;html=1;entryX=0.398;entryY=-0.022;entryDx=0;entryDy=0;entryPerimeter=0;" edge="1" parent="C9QYniWNFZmsUueq7vX_-53" source="OGbt-qXawgQpkkjLwjIS-1" target="OGbt-qXawgQpkkjLwjIS-39">
          <mxGeometry relative="1" as="geometry">
            <mxPoint x="244" y="835" as="targetPoint" />
          </mxGeometry>
        </mxCell>
        <mxCell id="OGbt-qXawgQpkkjLwjIS-1" value="SQS for report system" style="sketch=0;points=[[0,0,0],[0.25,0,0],[0.5,0,0],[0.75,0,0],[1,0,0],[0,1,0],[0.25,1,0],[0.5,1,0],[0.75,1,0],[1,1,0],[0,0.25,0],[0,0.5,0],[0,0.75,0],[1,0.25,0],[1,0.5,0],[1,0.75,0]];outlineConnect=0;fontColor=#232F3E;fillColor=#E7157B;strokeColor=#ffffff;dashed=0;verticalLabelPosition=bottom;verticalAlign=top;align=center;html=1;fontSize=12;fontStyle=0;aspect=fixed;shape=mxgraph.aws4.resourceIcon;resIcon=mxgraph.aws4.sqs;" vertex="1" parent="C9QYniWNFZmsUueq7vX_-53">
          <mxGeometry x="180" y="610" width="78" height="78" as="geometry" />
        </mxCell>
        <mxCell id="C9QYniWNFZmsUueq7vX_-16" value="report DB" style="sketch=0;outlineConnect=0;fontColor=#232F3E;gradientColor=none;fillColor=#C925D1;strokeColor=none;dashed=0;verticalLabelPosition=bottom;verticalAlign=top;align=center;html=1;fontSize=12;fontStyle=0;aspect=fixed;pointerEvents=1;shape=mxgraph.aws4.rds_sql_server_instance;" parent="C9QYniWNFZmsUueq7vX_-53" vertex="1">
          <mxGeometry x="460" y="660" width="78" height="78" as="geometry" />
        </mxCell>
        <mxCell id="C9QYniWNFZmsUueq7vX_-14" value="Literacy DB" style="sketch=0;outlineConnect=0;fontColor=#232F3E;gradientColor=none;fillColor=#C925D1;strokeColor=none;dashed=0;verticalLabelPosition=bottom;verticalAlign=top;align=center;html=1;fontSize=12;fontStyle=0;aspect=fixed;pointerEvents=1;shape=mxgraph.aws4.rds_sql_server_instance;" parent="C9QYniWNFZmsUueq7vX_-53" vertex="1">
          <mxGeometry x="460" y="520" width="78" height="78" as="geometry" />
        </mxCell>
        <mxCell id="OGbt-qXawgQpkkjLwjIS-10" value="SQS for emal events" style="sketch=0;points=[[0,0,0],[0.25,0,0],[0.5,0,0],[0.75,0,0],[1,0,0],[0,1,0],[0.25,1,0],[0.5,1,0],[0.75,1,0],[1,1,0],[0,0.25,0],[0,0.5,0],[0,0.75,0],[1,0.25,0],[1,0.5,0],[1,0.75,0]];outlineConnect=0;fontColor=#232F3E;fillColor=#E7157B;strokeColor=#ffffff;dashed=0;verticalLabelPosition=bottom;verticalAlign=top;align=center;html=1;fontSize=12;fontStyle=0;aspect=fixed;shape=mxgraph.aws4.resourceIcon;resIcon=mxgraph.aws4.sqs;" vertex="1" parent="C9QYniWNFZmsUueq7vX_-53">
          <mxGeometry x="130" y="890" width="78" height="78" as="geometry" />
        </mxCell>
        <mxCell id="OGbt-qXawgQpkkjLwjIS-15" style="edgeStyle=orthogonalEdgeStyle;rounded=0;orthogonalLoop=1;jettySize=auto;html=1;" edge="1" parent="C9QYniWNFZmsUueq7vX_-53" source="OGbt-qXawgQpkkjLwjIS-11" target="C9QYniWNFZmsUueq7vX_-14">
          <mxGeometry relative="1" as="geometry" />
        </mxCell>
        <mxCell id="OGbt-qXawgQpkkjLwjIS-35" style="edgeStyle=orthogonalEdgeStyle;rounded=0;orthogonalLoop=1;jettySize=auto;html=1;" edge="1" parent="C9QYniWNFZmsUueq7vX_-53" source="OGbt-qXawgQpkkjLwjIS-11" target="OGbt-qXawgQpkkjLwjIS-32">
          <mxGeometry relative="1" as="geometry">
            <Array as="points">
              <mxPoint x="529" y="190" />
              <mxPoint x="529" y="236" />
            </Array>
          </mxGeometry>
        </mxCell>
        <mxCell id="OGbt-qXawgQpkkjLwjIS-37" style="edgeStyle=orthogonalEdgeStyle;rounded=0;orthogonalLoop=1;jettySize=auto;html=1;" edge="1" parent="C9QYniWNFZmsUueq7vX_-53" source="OGbt-qXawgQpkkjLwjIS-11" target="OGbt-qXawgQpkkjLwjIS-36">
          <mxGeometry relative="1" as="geometry" />
        </mxCell>
        <mxCell id="OGbt-qXawgQpkkjLwjIS-11" value="Literacy Service" style="image;sketch=0;aspect=fixed;html=1;points=[];align=center;fontSize=12;image=img/lib/mscae/Docker.svg;" vertex="1" parent="C9QYniWNFZmsUueq7vX_-53">
          <mxGeometry x="280" y="350" width="97.56" height="80" as="geometry" />
        </mxCell>
        <mxCell id="OGbt-qXawgQpkkjLwjIS-17" style="edgeStyle=orthogonalEdgeStyle;rounded=0;orthogonalLoop=1;jettySize=auto;html=1;" edge="1" parent="C9QYniWNFZmsUueq7vX_-53" source="OGbt-qXawgQpkkjLwjIS-12" target="OGbt-qXawgQpkkjLwjIS-11">
          <mxGeometry relative="1" as="geometry" />
        </mxCell>
        <mxCell id="OGbt-qXawgQpkkjLwjIS-12" value="&lt;meta charset=&quot;utf-8&quot;&gt;&lt;div style=&quot;forced-color-adjust: none; color: rgb(0, 0, 0); font-family: Helvetica; font-size: 12px; font-style: normal; font-variant-ligatures: normal; font-variant-caps: normal; font-weight: 400; letter-spacing: normal; orphans: 2; text-align: center; text-indent: 0px; text-transform: none; widows: 2; word-spacing: 0px; -webkit-text-stroke-width: 0px; white-space: normal; background-color: rgb(251, 251, 251); text-decoration-thickness: initial; text-decoration-style: initial; text-decoration-color: initial;&quot;&gt;WebSocket Service&lt;/div&gt;&lt;span style=&quot;color: rgb(0, 0, 0); font-family: Helvetica; font-size: 12px; font-style: normal; font-variant-ligatures: normal; font-variant-caps: normal; font-weight: 400; letter-spacing: normal; orphans: 2; text-align: center; text-indent: 0px; text-transform: none; widows: 2; word-spacing: 0px; -webkit-text-stroke-width: 0px; white-space: normal; background-color: rgb(251, 251, 251); text-decoration-thickness: initial; text-decoration-style: initial; text-decoration-color: initial; display: inline !important; float: none;&quot;&gt;(SingnalR)&lt;/span&gt;" style="image;sketch=0;aspect=fixed;html=1;points=[];align=center;fontSize=12;image=img/lib/mscae/Docker.svg;" vertex="1" parent="C9QYniWNFZmsUueq7vX_-53">
          <mxGeometry x="240" y="50" width="97.57" height="80" as="geometry" />
        </mxCell>
        <mxCell id="OGbt-qXawgQpkkjLwjIS-16" style="edgeStyle=orthogonalEdgeStyle;rounded=0;orthogonalLoop=1;jettySize=auto;html=1;entryX=0.5;entryY=0;entryDx=0;entryDy=0;entryPerimeter=0;" edge="1" parent="C9QYniWNFZmsUueq7vX_-53" source="OGbt-qXawgQpkkjLwjIS-11" target="OGbt-qXawgQpkkjLwjIS-1">
          <mxGeometry relative="1" as="geometry" />
        </mxCell>
        <mxCell id="OGbt-qXawgQpkkjLwjIS-19" style="edgeStyle=orthogonalEdgeStyle;rounded=0;orthogonalLoop=1;jettySize=auto;html=1;entryX=0.5;entryY=0;entryDx=0;entryDy=0;entryPerimeter=0;" edge="1" parent="C9QYniWNFZmsUueq7vX_-53" source="OGbt-qXawgQpkkjLwjIS-10" target="C9QYniWNFZmsUueq7vX_-50">
          <mxGeometry relative="1" as="geometry" />
        </mxCell>
        <mxCell id="OGbt-qXawgQpkkjLwjIS-28" style="edgeStyle=orthogonalEdgeStyle;rounded=0;orthogonalLoop=1;jettySize=auto;html=1;" edge="1" parent="C9QYniWNFZmsUueq7vX_-53" source="OGbt-qXawgQpkkjLwjIS-23" target="OGbt-qXawgQpkkjLwjIS-26">
          <mxGeometry relative="1" as="geometry" />
        </mxCell>
        <mxCell id="OGbt-qXawgQpkkjLwjIS-23" value="Course Service" style="image;sketch=0;aspect=fixed;html=1;points=[];align=center;fontSize=12;image=img/lib/mscae/Docker.svg;" vertex="1" parent="C9QYniWNFZmsUueq7vX_-53">
          <mxGeometry x="740" y="70" width="97.56" height="80" as="geometry" />
        </mxCell>
        <mxCell id="OGbt-qXawgQpkkjLwjIS-30" style="edgeStyle=orthogonalEdgeStyle;rounded=0;orthogonalLoop=1;jettySize=auto;html=1;" edge="1" parent="C9QYniWNFZmsUueq7vX_-53" source="OGbt-qXawgQpkkjLwjIS-24" target="OGbt-qXawgQpkkjLwjIS-27">
          <mxGeometry relative="1" as="geometry" />
        </mxCell>
        <mxCell id="OGbt-qXawgQpkkjLwjIS-24" value="School Service" style="image;sketch=0;aspect=fixed;html=1;points=[];align=center;fontSize=12;image=img/lib/mscae/Docker.svg;" vertex="1" parent="C9QYniWNFZmsUueq7vX_-53">
          <mxGeometry x="740" y="220" width="97.56" height="80" as="geometry" />
        </mxCell>
        <mxCell id="OGbt-qXawgQpkkjLwjIS-26" value="Course Service" style="sketch=0;outlineConnect=0;fontColor=#232F3E;gradientColor=none;fillColor=#C925D1;strokeColor=none;dashed=0;verticalLabelPosition=bottom;verticalAlign=top;align=center;html=1;fontSize=12;fontStyle=0;aspect=fixed;pointerEvents=1;shape=mxgraph.aws4.rds_sql_server_instance;" vertex="1" parent="C9QYniWNFZmsUueq7vX_-53">
          <mxGeometry x="970" y="71" width="78" height="78" as="geometry" />
        </mxCell>
        <mxCell id="OGbt-qXawgQpkkjLwjIS-27" value="School Service" style="sketch=0;outlineConnect=0;fontColor=#232F3E;gradientColor=none;fillColor=#C925D1;strokeColor=none;dashed=0;verticalLabelPosition=bottom;verticalAlign=top;align=center;html=1;fontSize=12;fontStyle=0;aspect=fixed;pointerEvents=1;shape=mxgraph.aws4.rds_sql_server_instance;" vertex="1" parent="C9QYniWNFZmsUueq7vX_-53">
          <mxGeometry x="970" y="221" width="78" height="78" as="geometry" />
        </mxCell>
        <mxCell id="OGbt-qXawgQpkkjLwjIS-31" value="" style="outlineConnect=0;dashed=0;verticalLabelPosition=bottom;verticalAlign=top;align=center;html=1;shape=mxgraph.aws3.application_load_balancer;fillColor=#F58534;gradientColor=none;" vertex="1" parent="C9QYniWNFZmsUueq7vX_-53">
          <mxGeometry x="700" y="50" width="69" height="72" as="geometry" />
        </mxCell>
        <mxCell id="OGbt-qXawgQpkkjLwjIS-32" value="" style="outlineConnect=0;dashed=0;verticalLabelPosition=bottom;verticalAlign=top;align=center;html=1;shape=mxgraph.aws3.application_load_balancer;fillColor=#F58534;gradientColor=none;" vertex="1" parent="C9QYniWNFZmsUueq7vX_-53">
          <mxGeometry x="700" y="200" width="69" height="72" as="geometry" />
        </mxCell>
        <mxCell id="OGbt-qXawgQpkkjLwjIS-34" style="edgeStyle=orthogonalEdgeStyle;rounded=0;orthogonalLoop=1;jettySize=auto;html=1;entryX=0;entryY=0.5;entryDx=0;entryDy=0;entryPerimeter=0;" edge="1" parent="C9QYniWNFZmsUueq7vX_-53" source="OGbt-qXawgQpkkjLwjIS-11" target="OGbt-qXawgQpkkjLwjIS-31">
          <mxGeometry relative="1" as="geometry">
            <Array as="points">
              <mxPoint x="529" y="180" />
              <mxPoint x="529" y="86" />
            </Array>
          </mxGeometry>
        </mxCell>
        <mxCell id="OGbt-qXawgQpkkjLwjIS-36" value="assets" style="sketch=0;outlineConnect=0;fontColor=#232F3E;gradientColor=none;strokeColor=#ffffff;fillColor=#232F3E;dashed=0;verticalLabelPosition=middle;verticalAlign=bottom;align=center;html=1;whiteSpace=wrap;fontSize=10;fontStyle=1;spacing=3;shape=mxgraph.aws4.productIcon;prIcon=mxgraph.aws4.s3;" vertex="1" parent="C9QYniWNFZmsUueq7vX_-53">
          <mxGeometry x="570" y="560" width="80" height="120" as="geometry" />
        </mxCell>
        <mxCell id="OGbt-qXawgQpkkjLwjIS-40" style="edgeStyle=orthogonalEdgeStyle;rounded=0;orthogonalLoop=1;jettySize=auto;html=1;" edge="1" parent="C9QYniWNFZmsUueq7vX_-53" source="OGbt-qXawgQpkkjLwjIS-39" target="OGbt-qXawgQpkkjLwjIS-36">
          <mxGeometry relative="1" as="geometry" />
        </mxCell>
        <mxCell id="OGbt-qXawgQpkkjLwjIS-39" value="Report Service" style="image;sketch=0;aspect=fixed;html=1;points=[];align=center;fontSize=12;image=img/lib/mscae/Docker.svg;" vertex="1" parent="C9QYniWNFZmsUueq7vX_-53">
          <mxGeometry x="258" y="840" width="97.56" height="80" as="geometry" />
        </mxCell>
        <mxCell id="OGbt-qXawgQpkkjLwjIS-41" style="edgeStyle=orthogonalEdgeStyle;rounded=0;orthogonalLoop=1;jettySize=auto;html=1;entryX=0.732;entryY=0.009;entryDx=0;entryDy=0;entryPerimeter=0;" edge="1" parent="C9QYniWNFZmsUueq7vX_-53" source="C9QYniWNFZmsUueq7vX_-14" target="OGbt-qXawgQpkkjLwjIS-39">
          <mxGeometry relative="1" as="geometry" />
        </mxCell>
        <mxCell id="OGbt-qXawgQpkkjLwjIS-45" value="Customized Configuration Manager Service" style="image;sketch=0;aspect=fixed;html=1;points=[];align=center;fontSize=12;image=img/lib/mscae/Docker.svg;" vertex="1" parent="C9QYniWNFZmsUueq7vX_-53">
          <mxGeometry x="720" y="420" width="97.56" height="80" as="geometry" />
        </mxCell>
        <mxCell id="OGbt-qXawgQpkkjLwjIS-46" value="Shared Redis instance/cluster" style="image;sketch=0;aspect=fixed;html=1;points=[];align=center;fontSize=12;image=img/lib/mscae/Cache_Redis_Product.svg;" vertex="1" parent="C9QYniWNFZmsUueq7vX_-53">
          <mxGeometry x="743.78" y="580" width="50" height="42" as="geometry" />
        </mxCell>
        <mxCell id="C9QYniWNFZmsUueq7vX_-9" value="API Gateway" style="sketch=0;points=[[0,0,0],[0.25,0,0],[0.5,0,0],[0.75,0,0],[1,0,0],[0,1,0],[0.25,1,0],[0.5,1,0],[0.75,1,0],[1,1,0],[0,0.25,0],[0,0.5,0],[0,0.75,0],[1,0.25,0],[1,0.5,0],[1,0.75,0]];outlineConnect=0;fontColor=#232F3E;fillColor=#E7157B;strokeColor=#ffffff;dashed=0;verticalLabelPosition=bottom;verticalAlign=top;align=center;html=1;fontSize=12;fontStyle=0;aspect=fixed;shape=mxgraph.aws4.resourceIcon;resIcon=mxgraph.aws4.api_gateway;" parent="1" vertex="1">
          <mxGeometry x="30" y="500" width="78" height="78" as="geometry" />
        </mxCell>
        <mxCell id="OGbt-qXawgQpkkjLwjIS-9" style="edgeStyle=orthogonalEdgeStyle;rounded=0;orthogonalLoop=1;jettySize=auto;html=1;entryX=-0.01;entryY=0.456;entryDx=0;entryDy=0;entryPerimeter=0;" edge="1" parent="1" source="C9QYniWNFZmsUueq7vX_-9" target="OGbt-qXawgQpkkjLwjIS-12">
          <mxGeometry relative="1" as="geometry">
            <mxPoint x="294" y="160" as="targetPoint" />
          </mxGeometry>
        </mxCell>
        <mxCell id="C9QYniWNFZmsUueq7vX_-12" style="edgeStyle=orthogonalEdgeStyle;rounded=0;orthogonalLoop=1;jettySize=auto;html=1;entryX=-0.021;entryY=0.244;entryDx=0;entryDy=0;entryPerimeter=0;" parent="1" source="C9QYniWNFZmsUueq7vX_-9" target="OGbt-qXawgQpkkjLwjIS-11" edge="1">
          <mxGeometry relative="1" as="geometry">
            <mxPoint x="294" y="286" as="targetPoint" />
          </mxGeometry>
        </mxCell>
        <mxCell id="OGbt-qXawgQpkkjLwjIS-42" value="report files" style="sketch=0;outlineConnect=0;fontColor=#232F3E;gradientColor=none;strokeColor=#ffffff;fillColor=#232F3E;dashed=0;verticalLabelPosition=middle;verticalAlign=bottom;align=center;html=1;whiteSpace=wrap;fontSize=10;fontStyle=1;spacing=3;shape=mxgraph.aws4.productIcon;prIcon=mxgraph.aws4.s3;" vertex="1" parent="1">
          <mxGeometry x="40" y="850" width="80" height="120" as="geometry" />
        </mxCell>
        <mxCell id="OGbt-qXawgQpkkjLwjIS-43" style="edgeStyle=orthogonalEdgeStyle;rounded=0;orthogonalLoop=1;jettySize=auto;html=1;" edge="1" parent="1" source="OGbt-qXawgQpkkjLwjIS-39" target="OGbt-qXawgQpkkjLwjIS-42">
          <mxGeometry relative="1" as="geometry">
            <Array as="points">
              <mxPoint x="224" y="940" />
              <mxPoint x="224" y="910" />
            </Array>
          </mxGeometry>
        </mxCell>
      </root>
    </mxGraphModel>
  </diagram>
</mxfile>
